D:\school\WTK\thesis\model\3dpredictsim\Results\batch_windlass\Pog_s1_tmt_bCst_d05_k500_WL30_ig24_pas_GRF.mot
nRows=10
nColumns=19

name D:\school\WTK\thesis\model\3dpredictsim\Results\batch_windlass\Pog_s1_tmt_bCst_d05_k500_WL30_ig24_pas_GRF.mot
datacolumns 19
datarows 10
range 0.0000000000 0.0970990859
endheader
time 	ground_force_vx	ground_force_vy	ground_force_vz	ground_force_px	ground_force_py	ground_force_pz	1_ground_force_vx	1_ground_force_vy	1_ground_force_vz	1_ground_force_px	1_ground_force_py	1_ground_force_pz	ground_torque_x	ground_torque_y	ground_torque_z	1_ground_torque_x	1_ground_torque_y	1_ground_torque_z
        0.0000000000	      -94.2030173820	       75.3821053717	       29.1026289916	        0.1395047447	        0.0000000000	        0.0422734909	       81.9500458316	      440.2623052157	       -4.5219017722	       -0.3266187118	        0.0000000000	       -0.0349128779	        0.0000000000	        0.0000000000	        0.0000000000	        0.0000000000	        0.0000000000	        0.0000000000	
        0.0107887873	     -138.4578672049	      151.6573049606	       68.0790227041	        0.1493793027	        0.0000000000	        0.0409387288	       58.7277627143	      353.7044641336	      -11.5279027547	       -0.3211357289	        0.0000000000	       -0.0328547305	        0.0000000000	        0.0000000000	        0.0000000000	        0.0000000000	        0.0000000000	        0.0000000000	
        0.0215775747	      -58.1152210135	      327.1266652969	       30.7721930863	        0.1624522404	        0.0000000000	        0.0412851378	       33.3807778191	      260.8030795198	      -13.5479336677	       -0.3125531635	        0.0000000000	       -0.0289563906	        0.0000000000	        0.0000000000	        0.0000000000	        0.0000000000	        0.0000000000	        0.0000000000	
        0.0323663620	      -62.0492744142	      558.0600087871	       -1.4350448564	        0.1713115850	        0.0000000000	        0.0431771621	       14.1521289716	      181.5402696436	      -12.2551188347	       -0.3003533355	        0.0000000000	       -0.0224154298	        0.0000000000	        0.0000000000	        0.0000000000	        0.0000000000	        0.0000000000	        0.0000000000	
        0.0431551493	      -80.7684216085	      735.9003874520	      -11.1297898088	        0.1769874665	        0.0000000000	        0.0442831937	        1.7785835336	      148.8132680133	      -12.0527177509	       -0.2976150934	        0.0000000000	       -0.0206128176	        0.0000000000	        0.0000000000	        0.0000000000	        0.0000000000	        0.0000000000	        0.0000000000	
        0.0539439366	     -100.6700747359	      829.8506836616	      -15.1414095730	        0.1831993201	        0.0000000000	        0.0447910257	       -2.4569232686	      113.0915401914	      -11.6545634894	       -0.2973323822	        0.0000000000	       -0.0206497533	        0.0000000000	        0.0000000000	        0.0000000000	        0.0000000000	        0.0000000000	        0.0000000000	
        0.0647327240	     -114.3767751588	      875.8210213044	      -14.4325718444	        0.1897824428	        0.0000000000	        0.0447582820	      -11.6062321846	       72.1479366126	      -10.0037446979	       -0.2976064249	        0.0000000000	       -0.0206740758	        0.0000000000	        0.0000000000	        0.0000000000	        0.0000000000	        0.0000000000	        0.0000000000	
        0.0755215113	     -111.5697753881	      879.2861013250	      -14.3703049554	        0.1963944741	        0.0000000000	        0.0443819864	      -11.7110992240	       25.8353149865	       -4.0852504631	       -0.2980198957	        0.0000000000	       -0.0203914503	        0.0000000000	        0.0000000000	        0.0000000000	        0.0000000000	        0.0000000000	        0.0000000000	
        0.0863102986	      -99.0554179653	      846.9399377573	      -14.0745445256	        0.2007101364	        0.0000000000	        0.0439901845	        0.2245865045	       -0.2173378751	       -0.0008167204	        0.0000000000	        0.0000000000	        0.0000000000	        0.0000000000	        0.0000000000	        0.0000000000	        0.0000000000	        0.0000000000	        0.0000000000	
        0.0970990859	      -84.4217741882	      799.9753699304	      -14.9408563281	        0.2041833217	        0.0000000000	        0.0437127839	        0.0015126860	       -0.0012068562	       -0.0000847245	        0.0000000000	        0.0000000000	        0.0000000000	        0.0000000000	        0.0000000000	        0.0000000000	        0.0000000000	        0.0000000000	        0.0000000000	
